<svg xmlns="http://www.w3.org/2000/svg" xmlns:xlink="http://www.w3.org/1999/xlink" width="500" zoomAndPan="magnify" viewBox="0 0 375 374.999991" height="500" preserveAspectRatio="xMidYMid meet" version="1.0"><defs><clipPath id="b9e5fc0e09"><path d="M 163 112.5 L 212 112.5 L 212 148 L 163 148 Z M 163 112.5 " clip-rule="nonzero"/></clipPath><clipPath id="d3da966a1b"><path d="M 139.03125 133 L 235.78125 133 L 235.78125 262.5 L 139.03125 262.5 Z M 139.03125 133 " clip-rule="nonzero"/></clipPath><clipPath id="a6e61afac0"><path d="M 24.558594 146 L 91 146 L 91 180 L 24.558594 180 Z M 24.558594 146 " clip-rule="nonzero"/></clipPath><clipPath id="8406158ac4"><path d="M 277 223 L 350.808594 223 L 350.808594 249 L 277 249 Z M 277 223 " clip-rule="nonzero"/></clipPath></defs><path fill="#ff9dc3" d="M 169.25 144.28125 L 208.511719 144.28125 L 208.511719 130.863281 L 199.09375 130.863281 C 197.804688 130.863281 196.757812 129.816406 196.757812 128.523438 L 196.757812 118.738281 L 181.003906 118.738281 L 181.003906 128.523438 C 181.003906 129.816406 179.957031 130.863281 178.667969 130.863281 L 169.25 130.863281 Z M 169.25 144.28125 " fill-opacity="1" fill-rule="evenodd"/><path fill="#ff9dc3" d="M 209.304688 148.964844 L 168.457031 148.964844 C 167.449219 148.964844 166.515625 148.582031 165.824219 147.96875 C 165.054688 147.285156 164.578125 146.328125 164.578125 145.257812 L 164.578125 139.914062 L 145.175781 139.914062 L 145.175781 259.1875 L 232.585938 259.1875 L 232.585938 139.914062 L 213.183594 139.914062 L 213.183594 145.257812 C 213.183594 146.328125 212.707031 147.285156 211.9375 147.96875 C 211.246094 148.582031 210.3125 148.964844 209.304688 148.964844 Z M 180.273438 165.960938 L 225.257812 165.960938 C 226.546875 165.960938 227.59375 167.011719 227.59375 168.304688 C 227.59375 169.597656 226.546875 170.644531 225.257812 170.644531 L 180.273438 170.644531 C 178.984375 170.644531 177.9375 169.597656 177.9375 168.304688 C 177.9375 167.011719 178.984375 165.960938 180.273438 165.960938 Z M 180.273438 197.207031 L 225.257812 197.207031 C 226.546875 197.207031 227.59375 198.257812 227.59375 199.550781 C 227.59375 200.84375 226.546875 201.890625 225.257812 201.890625 L 180.273438 201.890625 C 178.984375 201.890625 177.9375 200.84375 177.9375 199.550781 C 177.9375 198.257812 178.984375 197.207031 180.273438 197.207031 Z M 177.9375 230.796875 C 177.9375 229.503906 178.984375 228.453125 180.273438 228.453125 L 225.257812 228.453125 C 226.546875 228.453125 227.59375 229.503906 227.59375 230.796875 C 227.59375 232.089844 226.546875 233.136719 225.257812 233.136719 L 180.273438 233.136719 C 178.984375 233.136719 177.9375 232.089844 177.9375 230.796875 Z M 171.359375 192.117188 L 171.359375 206.980469 C 171.359375 208.6875 169.964844 210.082031 168.261719 210.082031 L 153.265625 210.082031 C 151.558594 210.082031 150.167969 208.6875 150.167969 206.980469 L 150.167969 192.117188 C 150.167969 190.414062 151.5625 189.015625 153.265625 189.015625 L 168.261719 189.015625 C 169.96875 189.015625 171.359375 190.414062 171.359375 192.117188 Z M 153.265625 220.261719 L 168.261719 220.261719 C 169.96875 220.261719 171.359375 221.660156 171.359375 223.367188 L 171.359375 238.226562 C 171.359375 239.933594 169.957031 241.328125 168.261719 241.328125 L 153.265625 241.328125 C 151.558594 241.328125 150.167969 239.9375 150.167969 238.226562 L 150.167969 223.367188 C 150.167969 221.660156 151.570312 220.261719 153.265625 220.261719 Z M 153.265625 157.769531 L 168.261719 157.769531 C 169.96875 157.769531 171.359375 159.167969 171.359375 160.871094 L 171.359375 175.734375 C 171.359375 177.441406 169.964844 178.835938 168.261719 178.835938 L 153.265625 178.835938 C 151.558594 178.835938 150.167969 177.441406 150.167969 175.734375 L 150.167969 160.871094 C 150.167969 159.167969 151.5625 157.769531 153.265625 157.769531 Z M 153.265625 157.769531 " fill-opacity="1" fill-rule="evenodd"/><path fill="#ff9dc3" d="M 154.839844 162.453125 L 166.6875 162.453125 L 166.6875 174.15625 L 154.839844 174.15625 Z M 154.839844 162.453125 " fill-opacity="1" fill-rule="evenodd"/><path fill="#ff9dc3" d="M 154.839844 193.699219 L 166.6875 193.699219 L 166.6875 205.402344 L 154.839844 205.402344 Z M 154.839844 193.699219 " fill-opacity="1" fill-rule="evenodd"/><path fill="#ff9dc3" d="M 154.839844 224.945312 L 166.6875 224.945312 L 166.6875 236.648438 L 154.839844 236.648438 Z M 154.839844 224.945312 " fill-opacity="1" fill-rule="evenodd"/><g clip-path="url(#b9e5fc0e09)"><path fill="#250e1e" d="M 166.996094 124.71875 L 174.871094 124.71875 L 174.871094 115.851562 C 174.871094 114.902344 175.292969 114.058594 175.96875 113.457031 C 176.570312 112.925781 177.375 112.59375 178.238281 112.59375 L 196.601562 112.59375 C 197.464844 112.59375 198.273438 112.925781 198.875 113.457031 C 199.550781 114.058594 199.96875 114.902344 199.96875 115.851562 L 199.96875 124.71875 L 207.847656 124.71875 C 208.851562 124.71875 209.785156 125.097656 210.476562 125.714844 C 211.246094 126.394531 211.722656 127.355469 211.722656 128.425781 L 211.722656 143.792969 C 211.722656 144.863281 211.246094 145.824219 210.476562 146.503906 C 209.785156 147.121094 208.851562 147.5 207.847656 147.5 L 166.996094 147.5 C 165.992188 147.5 165.058594 147.121094 164.363281 146.503906 C 163.59375 145.824219 163.117188 144.863281 163.117188 143.792969 L 163.117188 128.425781 C 163.117188 127.355469 163.59375 126.394531 164.363281 125.714844 C 165.058594 125.097656 165.992188 124.71875 166.996094 124.71875 Z M 177.207031 129.398438 L 167.789062 129.398438 L 167.789062 142.820312 L 207.050781 142.820312 L 207.050781 129.398438 L 197.632812 129.398438 C 196.34375 129.398438 195.296875 128.351562 195.296875 127.058594 L 195.296875 117.277344 L 179.542969 117.277344 L 179.542969 127.058594 C 179.542969 128.351562 178.5 129.398438 177.207031 129.398438 Z M 177.207031 129.398438 " fill-opacity="1" fill-rule="nonzero"/></g><g clip-path="url(#d3da966a1b)"><path fill="#250e1e" d="M 209.386719 133.769531 C 208.097656 133.769531 207.050781 134.816406 207.050781 136.109375 C 207.050781 137.402344 208.097656 138.449219 209.386719 138.449219 L 231.125 138.449219 L 231.125 257.722656 L 143.714844 257.722656 L 143.714844 138.449219 L 165.453125 138.449219 C 166.742188 138.449219 167.789062 137.402344 167.789062 136.109375 C 167.789062 134.816406 166.742188 133.769531 165.453125 133.769531 L 142.785156 133.769531 C 141.753906 133.769531 140.816406 134.1875 140.140625 134.867188 C 139.464844 135.546875 139.042969 136.484375 139.042969 137.519531 L 139.042969 258.65625 C 139.042969 259.574219 139.382812 260.421875 139.941406 261.082031 C 140.003906 261.160156 140.070312 261.234375 140.140625 261.304688 C 140.816406 261.984375 141.753906 262.40625 142.785156 262.40625 L 232.058594 262.40625 C 233.066406 262.40625 233.984375 262.003906 234.65625 261.351562 L 234.664062 261.34375 L 234.671875 261.332031 L 234.699219 261.304688 L 234.703125 261.304688 L 234.695312 261.300781 C 235.375 260.617188 235.800781 259.679688 235.800781 258.65625 L 235.800781 137.519531 C 235.800781 136.484375 235.378906 135.546875 234.703125 134.867188 C 234.023438 134.1875 233.085938 133.769531 232.058594 133.769531 Z M 209.386719 133.769531 " fill-opacity="1" fill-rule="nonzero"/></g><path fill="#250e1e" d="M 151.804688 156.308594 L 166.804688 156.308594 C 168.507812 156.308594 169.898438 157.707031 169.898438 159.410156 L 169.898438 174.269531 C 169.898438 175.980469 168.503906 177.375 166.804688 177.375 L 151.804688 177.375 C 150.101562 177.375 148.707031 175.976562 148.707031 174.269531 L 148.707031 159.410156 C 148.707031 157.707031 150.105469 156.308594 151.804688 156.308594 Z M 165.226562 160.988281 L 153.382812 160.988281 L 153.382812 172.691406 L 165.226562 172.691406 Z M 165.226562 160.988281 " fill-opacity="1" fill-rule="nonzero"/><path fill="#250e1e" d="M 151.804688 187.554688 L 166.804688 187.554688 C 168.507812 187.554688 169.898438 188.953125 169.898438 190.65625 L 169.898438 205.515625 C 169.898438 207.226562 168.503906 208.621094 166.804688 208.621094 L 151.804688 208.621094 C 150.101562 208.621094 148.707031 207.222656 148.707031 205.515625 L 148.707031 190.65625 C 148.707031 188.953125 150.105469 187.554688 151.804688 187.554688 Z M 165.226562 192.234375 L 153.382812 192.234375 L 153.382812 203.9375 L 165.226562 203.9375 Z M 165.226562 192.234375 " fill-opacity="1" fill-rule="nonzero"/><path fill="#250e1e" d="M 151.804688 218.800781 L 166.804688 218.800781 C 168.507812 218.800781 169.898438 220.199219 169.898438 221.902344 L 169.898438 236.765625 C 169.898438 238.46875 168.5 239.867188 166.804688 239.867188 L 151.804688 239.867188 C 150.097656 239.867188 148.707031 238.472656 148.707031 236.765625 L 148.707031 221.902344 C 148.707031 220.199219 150.109375 218.800781 151.804688 218.800781 Z M 165.226562 223.480469 L 153.382812 223.480469 L 153.382812 235.183594 L 165.226562 235.183594 Z M 165.226562 223.480469 " fill-opacity="1" fill-rule="nonzero"/><path fill="#250e1e" d="M 178.8125 164.5 C 177.523438 164.5 176.476562 165.546875 176.476562 166.839844 C 176.476562 168.132812 177.523438 169.183594 178.8125 169.183594 L 223.796875 169.183594 C 225.085938 169.183594 226.132812 168.132812 226.132812 166.839844 C 226.132812 165.546875 225.085938 164.5 223.796875 164.5 Z M 178.8125 164.5 " fill-opacity="1" fill-rule="nonzero"/><path fill="#250e1e" d="M 178.8125 195.746094 C 177.523438 195.746094 176.476562 196.792969 176.476562 198.085938 C 176.476562 199.378906 177.523438 200.429688 178.8125 200.429688 L 223.796875 200.429688 C 225.085938 200.429688 226.132812 199.378906 226.132812 198.085938 C 226.132812 196.792969 225.085938 195.746094 223.796875 195.746094 Z M 178.8125 195.746094 " fill-opacity="1" fill-rule="nonzero"/><path fill="#250e1e" d="M 178.8125 226.992188 C 177.523438 226.992188 176.476562 228.039062 176.476562 229.332031 C 176.476562 230.625 177.523438 231.675781 178.8125 231.675781 L 223.796875 231.675781 C 225.085938 231.675781 226.132812 230.625 226.132812 229.332031 C 226.132812 228.039062 225.085938 226.992188 223.796875 226.992188 Z M 178.8125 226.992188 " fill-opacity="1" fill-rule="nonzero"/><path fill="#c8ede6" d="M 316.878906 210.644531 C 317.976562 208.394531 318.949219 206.023438 319.792969 203.542969 C 329.433594 175.140625 314.855469 141.113281 284.15625 132.898438 C 280.835938 91.289062 251.542969 62.738281 218.460938 57.871094 C 180.597656 52.296875 145.910156 76.308594 134.367188 114.476562 C 120.457031 109.554688 106.902344 110.15625 94.128906 117.609375 C 88.332031 120.285156 83.03125 124.230469 78.273438 129.425781 C 71.289062 137.050781 66.75 146.675781 64.902344 156.824219 C 62.160156 157.257812 59.46875 157.6875 56.933594 158.59375 C 42.140625 163.890625 32.804688 174.792969 30.246094 191.210938 C 28.65625 201.4375 31.871094 211.636719 33.664062 215.753906 C 40.75 232.039062 57.179688 241.269531 73.871094 238.828125 C 74.703125 238.707031 75.910156 239.082031 76.625 239.679688 C 77.507812 265.707031 90.164062 288.726562 109.15625 301.875 C 139.625 322.976562 178.824219 316.476562 203.554688 287.542969 C 214.152344 298.363281 226.761719 303.617188 241.578125 301.710938 C 256.308594 299.8125 267.746094 291.699219 276.089844 278.5 C 279.949219 279.535156 283.601562 281.027344 287.378906 281.441406 C 302.179688 283.058594 314.097656 277.113281 323.015625 263.894531 C 323.320312 263.441406 323.757812 263.09375 324.136719 262.695312 C 325.410156 259.777344 326.683594 256.859375 327.957031 253.945312 C 328.527344 249.515625 329.53125 245.085938 329.582031 240.667969 C 329.722656 228.765625 324.851562 217.914062 316.878906 210.644531 Z M 316.878906 210.644531 " fill-opacity="1" fill-rule="nonzero"/><path fill="#fdfcef" d="M 256.242188 151.6875 C 256.242188 151.6875 213.433594 151.6875 213.175781 151.6875 C 203.289062 151.6875 195.277344 143.6875 195.277344 133.816406 C 195.277344 125.207031 201.375 118.019531 209.496094 116.328125 C 209.402344 115.574219 209.339844 114.8125 209.339844 114.035156 C 209.339844 103.8125 217.640625 95.527344 227.878906 95.527344 C 233.925781 95.527344 239.277344 98.429688 242.660156 102.898438 C 243.523438 91.519531 253.707031 82.742188 265.621094 84.195312 C 274.332031 85.261719 281.53125 91.984375 283.136719 100.59375 C 283.648438 103.359375 283.597656 106.039062 283.085938 108.554688 C 285.421875 106.042969 288.746094 104.464844 292.449219 104.464844 C 299.222656 104.464844 304.753906 109.730469 305.191406 116.382812 C 308.265625 115.703125 311.613281 115.746094 315.140625 117.070312 C 321.875 119.597656 326.671875 125.929688 326.957031 133.109375 C 327.355469 143.304688 319.191406 151.695312 309.066406 151.695312 C 308.300781 151.695312 305.597656 151.695312 304.972656 151.695312 L 267.804688 151.695312 " fill-opacity="1" fill-rule="nonzero"/><path fill="#472b29" d="M 213.175781 153.515625 L 256.242188 153.515625 C 257.253906 153.515625 258.074219 152.699219 258.074219 151.6875 C 258.074219 150.679688 257.253906 149.859375 256.242188 149.859375 L 213.175781 149.859375 C 204.3125 149.859375 197.101562 142.664062 197.101562 133.816406 C 197.101562 126.265625 202.472656 119.660156 209.867188 118.117188 C 210.800781 117.921875 211.425781 117.046875 211.308594 116.097656 C 211.226562 115.417969 211.167969 114.730469 211.167969 114.035156 C 211.167969 104.832031 218.664062 97.351562 227.871094 97.351562 C 233.136719 97.351562 237.996094 99.777344 241.191406 104 C 241.652344 104.605469 242.429688 104.867188 243.171875 104.648438 C 243.898438 104.433594 244.421875 103.792969 244.476562 103.039062 C 244.859375 98.003906 247.328125 93.273438 251.25 90.0625 C 255.214844 86.816406 260.246094 85.378906 265.386719 86.011719 C 273.316406 86.984375 279.871094 93.113281 281.324219 100.929688 C 281.777344 103.367188 281.761719 105.808594 281.277344 108.1875 C 281.117188 108.992188 281.503906 109.804688 282.234375 110.175781 C 282.96875 110.558594 283.859375 110.394531 284.414062 109.796875 C 286.519531 107.539062 289.367188 106.289062 292.433594 106.289062 C 298.179688 106.289062 302.972656 110.78125 303.347656 116.503906 C 303.386719 117.039062 303.648438 117.523438 304.078125 117.84375 C 304.503906 118.167969 305.058594 118.28125 305.570312 118.167969 C 308.652344 117.492188 311.566406 117.683594 314.480469 118.777344 C 320.589844 121.070312 324.859375 126.851562 325.109375 133.171875 C 325.28125 137.585938 323.691406 141.765625 320.640625 144.9375 C 317.582031 148.113281 313.464844 149.863281 309.054688 149.863281 L 267.789062 149.863281 C 266.78125 149.863281 265.960938 150.683594 265.960938 151.691406 C 265.960938 152.703125 266.78125 153.519531 267.789062 153.519531 L 309.0625 153.519531 C 314.476562 153.519531 319.527344 151.371094 323.28125 147.472656 C 327.035156 143.578125 328.988281 138.449219 328.773438 133.035156 C 328.472656 125.261719 323.246094 118.160156 315.777344 115.359375 C 312.847656 114.261719 309.824219 113.90625 306.738281 114.265625 C 305.359375 107.605469 299.421875 102.636719 292.441406 102.636719 C 289.9375 102.636719 287.484375 103.292969 285.324219 104.5 C 285.324219 103.089844 285.195312 101.675781 284.933594 100.261719 C 283.1875 90.898438 275.335938 83.546875 265.839844 82.382812 C 259.691406 81.632812 253.683594 83.355469 248.9375 87.238281 C 245.265625 90.246094 242.652344 94.371094 241.476562 98.910156 C 237.769531 95.5625 232.984375 93.699219 227.875 93.699219 C 216.644531 93.699219 207.507812 102.820312 207.507812 114.035156 C 207.507812 114.335938 207.515625 114.640625 207.535156 114.941406 C 199.28125 117.398438 193.445312 125.085938 193.445312 133.816406 C 193.441406 144.683594 202.292969 153.515625 213.175781 153.515625 Z M 213.175781 153.515625 " fill-opacity="1" fill-rule="nonzero"/><path fill="#fdfcef" d="M 266.617188 112.324219 C 273.234375 111.890625 278.9375 116.457031 279.34375 122.519531 C 279.394531 123.273438 279.363281 124.015625 279.25 124.738281 C 280.53125 123.296875 282.417969 122.320312 284.589844 122.179688 C 288.5625 121.917969 291.992188 124.535156 292.492188 128.101562 C 293.214844 127.902344 293.96875 127.769531 294.746094 127.71875 C 300.539062 127.339844 305.527344 131.335938 305.886719 136.644531 " fill-opacity="1" fill-rule="nonzero"/><path fill="#472b29" d="M 305.882812 137.554688 C 305.90625 137.554688 305.925781 137.554688 305.945312 137.550781 C 306.449219 137.515625 306.832031 137.082031 306.796875 136.578125 C 306.40625 130.777344 300.984375 126.382812 294.683594 126.800781 C 294.183594 126.835938 293.6875 126.898438 293.1875 126.996094 C 292.183594 123.457031 288.589844 120.980469 284.523438 121.265625 C 282.96875 121.367188 281.511719 121.847656 280.261719 122.664062 C 280.261719 122.59375 280.253906 122.527344 280.25 122.460938 C 279.8125 115.898438 273.707031 110.90625 266.550781 111.414062 C 266.042969 111.449219 265.664062 111.882812 265.695312 112.386719 C 265.730469 112.894531 266.152344 113.320312 266.671875 113.238281 C 272.714844 112.851562 278.050781 117.027344 278.425781 122.582031 C 278.46875 123.257812 278.4375 123.9375 278.339844 124.605469 C 278.277344 125.003906 278.488281 125.398438 278.855469 125.570312 C 279.222656 125.742188 279.65625 125.652344 279.929688 125.347656 C 281.113281 124.011719 282.785156 123.210938 284.640625 123.089844 C 288.125 122.96875 291.140625 125.125 291.578125 128.222656 C 291.613281 128.484375 291.757812 128.71875 291.980469 128.863281 C 292.199219 129.007812 292.464844 129.050781 292.726562 128.980469 C 293.410156 128.792969 294.105469 128.675781 294.800781 128.625 C 300.074219 128.289062 304.640625 131.902344 304.964844 136.699219 C 305.003906 137.183594 305.40625 137.554688 305.882812 137.554688 Z M 305.882812 137.554688 " fill-opacity="1" fill-rule="nonzero"/><path fill="#fdfcef" d="M 205.925781 118.421875 C 212.144531 115.496094 219.339844 117.566406 221.996094 123.054688 C 222.324219 123.734375 222.570312 124.441406 222.730469 125.152344 " fill-opacity="1" fill-rule="nonzero"/><path fill="#472b29" d="M 222.730469 126.066406 C 222.796875 126.066406 222.867188 126.058594 222.9375 126.046875 C 223.425781 125.933594 223.738281 125.441406 223.625 124.949219 C 223.445312 124.15625 223.175781 123.382812 222.824219 122.65625 C 219.957031 116.730469 212.195312 114.472656 205.535156 117.59375 C 205.078125 117.8125 204.878906 118.355469 205.097656 118.8125 C 205.3125 119.273438 205.863281 119.453125 206.316406 119.25 C 212.078125 116.53125 218.742188 118.417969 221.175781 123.449219 C 221.46875 124.054688 221.691406 124.691406 221.839844 125.355469 C 221.9375 125.78125 222.3125 126.066406 222.730469 126.066406 Z M 222.730469 126.066406 " fill-opacity="1" fill-rule="nonzero"/><g clip-path="url(#a6e61afac0)"><path fill="#ffffff" d="M 63 164.765625 L 26.273438 164.765625 C 25.261719 164.765625 24.445312 163.945312 24.445312 162.9375 C 24.445312 161.929688 25.261719 161.109375 26.273438 161.109375 L 63 161.109375 C 64.011719 161.109375 64.832031 161.929688 64.832031 162.9375 C 64.832031 163.945312 64.015625 164.765625 63 164.765625 Z M 75.378906 162.9375 C 75.378906 161.929688 74.558594 161.109375 73.550781 161.109375 L 68.253906 161.109375 C 67.242188 161.109375 66.425781 161.929688 66.425781 162.9375 C 66.425781 163.945312 67.242188 164.765625 68.253906 164.765625 L 73.550781 164.765625 C 74.5625 164.765625 75.378906 163.945312 75.378906 162.9375 Z M 90.226562 162.9375 C 90.226562 161.929688 89.40625 161.109375 88.398438 161.109375 L 79.074219 161.109375 C 78.0625 161.109375 77.242188 161.929688 77.242188 162.9375 C 77.242188 163.945312 78.0625 164.765625 79.074219 164.765625 L 88.398438 164.765625 C 89.410156 164.765625 90.226562 163.945312 90.226562 162.9375 Z M 90.226562 170.246094 C 90.226562 169.238281 89.40625 168.421875 88.398438 168.421875 L 53.1875 168.421875 C 52.175781 168.421875 51.355469 169.238281 51.355469 170.246094 C 51.355469 171.257812 52.175781 172.074219 53.1875 172.074219 L 88.398438 172.074219 C 89.410156 172.074219 90.226562 171.257812 90.226562 170.246094 Z M 48.675781 170.246094 C 48.675781 169.238281 47.855469 168.421875 46.84375 168.421875 L 44.722656 168.421875 C 43.710938 168.421875 42.890625 169.238281 42.890625 170.246094 C 42.890625 171.257812 43.710938 172.074219 44.722656 172.074219 L 46.84375 172.074219 C 47.855469 172.074219 48.675781 171.257812 48.675781 170.246094 Z M 39.976562 170.246094 C 39.976562 169.238281 39.15625 168.421875 38.144531 168.421875 L 32.808594 168.421875 C 31.800781 168.421875 30.980469 169.238281 30.980469 170.246094 C 30.980469 171.257812 31.800781 172.074219 32.808594 172.074219 L 38.144531 172.074219 C 39.15625 172.074219 39.976562 171.257812 39.976562 170.246094 Z M 73.425781 155.625 C 73.425781 154.617188 72.605469 153.796875 71.59375 153.796875 L 53.1875 153.796875 C 52.175781 153.796875 51.355469 154.617188 51.355469 155.625 C 51.355469 156.632812 52.175781 157.453125 53.1875 157.453125 L 71.59375 157.453125 C 72.609375 157.453125 73.425781 156.632812 73.425781 155.625 Z M 73.425781 148.316406 C 73.425781 147.304688 72.605469 146.488281 71.59375 146.488281 L 66.992188 146.488281 C 65.980469 146.488281 65.160156 147.304688 65.160156 148.316406 C 65.160156 149.324219 65.980469 150.140625 66.992188 150.140625 L 71.59375 150.140625 C 72.609375 150.140625 73.425781 149.324219 73.425781 148.316406 Z M 61.453125 177.558594 C 61.453125 176.550781 60.636719 175.730469 59.625 175.730469 L 53.1875 175.730469 C 52.175781 175.730469 51.355469 176.550781 51.355469 177.558594 C 51.355469 178.566406 52.175781 179.386719 53.1875 179.386719 L 59.625 179.386719 C 60.636719 179.386719 61.453125 178.566406 61.453125 177.558594 Z M 61.453125 177.558594 " fill-opacity="1" fill-rule="nonzero"/></g><path fill="#fffef4" d="M 117.277344 271.871094 C 109.15625 271.871094 102.554688 265.277344 102.554688 257.171875 L 102.554688 149.125 C 102.554688 141.019531 109.160156 134.425781 117.277344 134.425781 L 247.472656 134.425781 C 255.59375 134.425781 262.195312 141.023438 262.195312 149.125 L 262.195312 257.171875 C 262.195312 265.28125 255.589844 271.871094 247.472656 271.871094 Z M 117.277344 271.871094 " fill-opacity="1" fill-rule="nonzero"/><path fill="#472b29" d="M 247.46875 136.984375 C 254.175781 136.984375 259.632812 142.429688 259.632812 149.125 L 259.632812 257.171875 C 259.632812 263.867188 254.175781 269.316406 247.46875 269.316406 L 117.277344 269.316406 C 110.566406 269.316406 105.113281 263.867188 105.113281 257.171875 L 105.113281 149.125 C 105.113281 142.429688 110.566406 136.984375 117.277344 136.984375 L 247.46875 136.984375 M 247.46875 131.863281 L 117.277344 131.863281 C 107.726562 131.863281 99.984375 139.59375 99.984375 149.125 L 99.984375 257.171875 C 99.984375 266.703125 107.726562 274.429688 117.277344 274.429688 L 247.472656 274.429688 C 257.019531 274.429688 264.757812 266.703125 264.757812 257.167969 L 264.757812 149.125 C 264.757812 139.59375 257.019531 131.863281 247.46875 131.863281 Z M 247.46875 131.863281 " fill-opacity="1" fill-rule="nonzero"/><path fill="#472b29" d="M 208.003906 179.386719 L 156.742188 179.386719 C 155.730469 179.386719 154.910156 178.566406 154.910156 177.558594 C 154.910156 176.550781 155.730469 175.730469 156.742188 175.730469 L 208.003906 175.730469 C 209.015625 175.730469 209.835938 176.550781 209.835938 177.558594 C 209.835938 178.566406 209.015625 179.386719 208.003906 179.386719 Z M 160.402344 145.574219 L 105.480469 145.574219 C 104.972656 145.574219 104.5625 145.164062 104.5625 144.660156 C 104.5625 144.15625 104.972656 143.746094 105.480469 143.746094 L 160.402344 143.746094 C 160.910156 143.746094 161.316406 144.15625 161.316406 144.660156 C 161.316406 145.164062 160.910156 145.574219 160.402344 145.574219 Z M 182.371094 145.574219 L 167.726562 145.574219 C 167.222656 145.574219 166.8125 145.164062 166.8125 144.660156 C 166.8125 144.15625 167.222656 143.746094 167.726562 143.746094 L 182.371094 143.746094 C 182.878906 143.746094 183.289062 144.15625 183.289062 144.660156 C 183.289062 145.164062 182.878906 145.574219 182.371094 145.574219 Z M 226.3125 145.574219 L 189.695312 145.574219 C 189.191406 145.574219 188.78125 145.164062 188.78125 144.660156 C 188.78125 144.15625 189.191406 143.746094 189.695312 143.746094 L 226.3125 143.746094 C 226.816406 143.746094 227.226562 144.15625 227.226562 144.660156 C 227.226562 145.164062 226.816406 145.574219 226.3125 145.574219 Z M 262.929688 145.574219 L 237.296875 145.574219 C 236.792969 145.574219 236.382812 145.164062 236.382812 144.660156 C 236.382812 144.15625 236.792969 143.746094 237.296875 143.746094 L 262.929688 143.746094 C 263.433594 143.746094 263.84375 144.15625 263.84375 144.660156 C 263.84375 145.164062 263.433594 145.574219 262.929688 145.574219 Z M 160.402344 262.550781 L 98.15625 262.550781 C 97.648438 262.550781 97.238281 262.140625 97.238281 261.636719 C 97.238281 261.132812 97.648438 260.722656 98.15625 260.722656 L 160.402344 260.722656 C 160.910156 260.722656 161.316406 261.132812 161.316406 261.636719 C 161.316406 262.140625 160.910156 262.550781 160.402344 262.550781 Z M 182.371094 262.550781 L 167.726562 262.550781 C 167.222656 262.550781 166.8125 262.140625 166.8125 261.636719 C 166.8125 261.132812 167.222656 260.722656 167.726562 260.722656 L 182.371094 260.722656 C 182.878906 260.722656 183.289062 261.132812 183.289062 261.636719 C 183.289062 262.140625 182.878906 262.550781 182.371094 262.550781 Z M 226.3125 262.550781 L 189.695312 262.550781 C 189.191406 262.550781 188.78125 262.140625 188.78125 261.636719 C 188.78125 261.132812 189.191406 260.722656 189.695312 260.722656 L 226.3125 260.722656 C 226.816406 260.722656 227.226562 261.132812 227.226562 261.636719 C 227.226562 262.140625 226.816406 262.550781 226.3125 262.550781 Z M 262.929688 262.550781 L 237.296875 262.550781 C 236.792969 262.550781 236.382812 262.140625 236.382812 261.636719 C 236.382812 261.132812 236.792969 260.722656 237.296875 260.722656 L 262.929688 260.722656 C 263.433594 260.722656 263.84375 261.132812 263.84375 261.636719 C 263.84375 262.140625 263.433594 262.550781 262.929688 262.550781 Z M 244.621094 179.386719 L 222.648438 179.386719 C 221.640625 179.386719 220.820312 178.566406 220.820312 177.558594 C 220.820312 176.550781 221.640625 175.730469 222.648438 175.730469 L 244.621094 175.730469 C 245.628906 175.730469 246.449219 176.550781 246.449219 177.558594 C 246.449219 178.566406 245.628906 179.386719 244.621094 179.386719 Z M 244.621094 212.285156 L 186.035156 212.285156 C 185.023438 212.285156 184.203125 211.46875 184.203125 210.457031 C 184.203125 209.449219 185.023438 208.628906 186.035156 208.628906 L 244.621094 208.628906 C 245.628906 208.628906 246.449219 209.449219 246.449219 210.457031 C 246.449219 211.46875 245.628906 212.285156 244.621094 212.285156 Z M 175.050781 212.285156 L 156.742188 212.285156 C 155.730469 212.285156 154.910156 211.46875 154.910156 210.457031 C 154.910156 209.449219 155.730469 208.628906 156.742188 208.628906 L 175.050781 208.628906 C 176.058594 208.628906 176.878906 209.449219 176.878906 210.457031 C 176.878906 211.46875 176.058594 212.285156 175.050781 212.285156 Z M 175.050781 212.285156 " fill-opacity="1" fill-rule="nonzero"/><path fill="#472b29" d="M 229.972656 241.53125 L 156.742188 241.53125 C 155.730469 241.53125 154.910156 240.710938 154.910156 239.703125 C 154.910156 238.695312 155.730469 237.875 156.742188 237.875 L 229.972656 237.875 C 230.984375 237.875 231.804688 238.695312 231.804688 239.703125 C 231.804688 240.710938 230.984375 241.53125 229.972656 241.53125 Z M 229.972656 241.53125 " fill-opacity="1" fill-rule="nonzero"/><path fill="#472b29" d="M 130.742188 183.773438 C 130.261719 183.773438 129.792969 183.578125 129.449219 183.238281 L 120.660156 174.464844 C 119.945312 173.753906 119.945312 172.59375 120.660156 171.882812 C 121.375 171.167969 122.535156 171.167969 123.25 171.882812 L 130.546875 179.167969 L 142.457031 163.304688 C 143.070312 162.496094 144.214844 162.335938 145.019531 162.9375 C 145.828125 163.542969 145.996094 164.6875 145.390625 165.496094 L 132.207031 183.042969 C 131.890625 183.464844 131.398438 183.730469 130.871094 183.769531 C 130.832031 183.773438 130.789062 183.773438 130.742188 183.773438 Z M 130.742188 183.773438 " fill-opacity="1" fill-rule="nonzero"/><path fill="#472b29" d="M 130.742188 216.671875 C 130.261719 216.671875 129.792969 216.480469 129.449219 216.140625 L 120.660156 207.367188 C 119.945312 206.652344 119.945312 205.492188 120.660156 204.78125 C 121.375 204.070312 122.535156 204.070312 123.25 204.78125 L 130.546875 212.066406 L 142.457031 196.207031 C 143.070312 195.398438 144.214844 195.238281 145.019531 195.835938 C 145.828125 196.441406 145.996094 197.585938 145.390625 198.394531 L 132.207031 215.941406 C 131.890625 216.367188 131.398438 216.628906 130.871094 216.667969 C 130.832031 216.671875 130.789062 216.671875 130.742188 216.671875 Z M 130.742188 216.671875 " fill-opacity="1" fill-rule="nonzero"/><path fill="#472b29" d="M 130.742188 245.917969 C 130.261719 245.917969 129.792969 245.722656 129.449219 245.382812 L 120.660156 236.609375 C 119.945312 235.898438 119.945312 234.738281 120.660156 234.023438 C 121.375 233.3125 122.535156 233.3125 123.25 234.023438 L 130.546875 241.3125 L 142.457031 225.449219 C 143.070312 224.640625 144.214844 224.480469 145.019531 225.082031 C 145.828125 225.6875 145.996094 226.832031 145.390625 227.640625 L 132.207031 245.1875 C 131.890625 245.609375 131.398438 245.871094 130.871094 245.914062 C 130.832031 245.917969 130.789062 245.917969 130.742188 245.917969 Z M 130.742188 245.917969 " fill-opacity="1" fill-rule="nonzero"/><g clip-path="url(#8406158ac4)"><path fill="#ffffff" d="M 316.023438 234.21875 L 279.40625 234.21875 C 278.394531 234.21875 277.574219 233.398438 277.574219 232.390625 C 277.574219 231.382812 278.394531 230.5625 279.40625 230.5625 L 316.023438 230.5625 C 317.03125 230.5625 317.851562 231.382812 317.851562 232.390625 C 317.851562 233.398438 317.03125 234.21875 316.023438 234.21875 Z M 330.667969 234.21875 L 323.34375 234.21875 C 322.335938 234.21875 321.515625 233.398438 321.515625 232.390625 C 321.515625 231.382812 322.335938 230.5625 323.34375 230.5625 L 330.667969 230.5625 C 331.679688 230.5625 332.5 231.382812 332.5 232.390625 C 332.5 233.398438 331.679688 234.21875 330.667969 234.21875 Z M 348.976562 241.53125 L 312.359375 241.53125 C 311.347656 241.53125 310.527344 240.710938 310.527344 239.703125 C 310.527344 238.695312 311.347656 237.875 312.359375 237.875 L 348.976562 237.875 C 349.988281 237.875 350.808594 238.695312 350.808594 239.703125 C 350.808594 240.710938 349.992188 241.53125 348.976562 241.53125 Z M 305.035156 241.53125 L 301.375 241.53125 C 300.363281 241.53125 299.542969 240.710938 299.542969 239.703125 C 299.542969 238.695312 300.363281 237.875 301.375 237.875 L 305.035156 237.875 C 306.046875 237.875 306.867188 238.695312 306.867188 239.703125 C 306.867188 240.710938 306.046875 241.53125 305.035156 241.53125 Z M 293.59375 241.53125 L 286.730469 241.53125 C 285.71875 241.53125 284.898438 240.710938 284.898438 239.703125 C 284.898438 238.695312 285.71875 237.875 286.730469 237.875 L 293.59375 237.875 C 294.605469 237.875 295.425781 238.695312 295.425781 239.703125 C 295.425781 240.710938 294.605469 241.53125 293.59375 241.53125 Z M 327.007812 226.90625 L 308.699219 226.90625 C 307.6875 226.90625 306.867188 226.089844 306.867188 225.082031 C 306.867188 224.070312 307.6875 223.253906 308.699219 223.253906 L 327.007812 223.253906 C 328.015625 223.253906 328.835938 224.070312 328.835938 225.082031 C 328.835938 226.089844 328.019531 226.90625 327.007812 226.90625 Z M 316.023438 248.839844 L 308.699219 248.839844 C 307.6875 248.839844 306.867188 248.023438 306.867188 247.011719 C 306.867188 246.003906 307.6875 245.1875 308.699219 245.1875 L 316.023438 245.1875 C 317.03125 245.1875 317.851562 246.003906 317.851562 247.011719 C 317.851562 248.023438 317.03125 248.839844 316.023438 248.839844 Z M 316.023438 248.839844 " fill-opacity="1" fill-rule="nonzero"/></g><path fill="#fdfcef" d="M 122.609375 301.066406 C 129.503906 301.066406 135.484375 301.066406 135.570312 301.066406 C 143.296875 301.066406 149.5625 294.949219 149.5625 287.398438 C 149.5625 280.8125 144.792969 275.316406 138.449219 274.019531 C 138.519531 273.441406 138.574219 272.863281 138.574219 272.265625 C 138.574219 264.445312 132.085938 258.109375 124.082031 258.109375 C 119.359375 258.109375 115.175781 260.328125 112.53125 263.75 C 111.855469 255.042969 103.898438 248.328125 94.589844 249.445312 C 87.78125 250.257812 82.152344 255.398438 80.898438 261.984375 C 80.496094 264.097656 80.539062 266.148438 80.9375 268.074219 C 79.113281 266.152344 76.515625 264.945312 73.621094 264.945312 C 68.328125 264.945312 64.003906 268.972656 63.664062 274.058594 C 61.257812 273.542969 58.644531 273.574219 55.890625 274.582031 C 50.625 276.511719 46.875 281.355469 46.65625 286.851562 C 46.34375 294.648438 52.722656 301.066406 60.636719 301.066406 C 61.234375 301.066406 63.347656 301.066406 63.835938 301.066406 L 92.886719 301.066406 M 98.890625 301.066406 L 100.210938 301.066406 " fill-opacity="1" fill-rule="nonzero"/><path fill="#472b29" d="M 135.570312 302.898438 L 122.609375 302.898438 C 121.597656 302.898438 120.777344 302.078125 120.777344 301.070312 C 120.777344 300.0625 121.597656 299.242188 122.609375 299.242188 L 135.570312 299.242188 C 142.273438 299.242188 147.730469 293.933594 147.730469 287.402344 C 147.730469 281.832031 143.671875 276.957031 138.078125 275.816406 C 137.140625 275.621094 136.507812 274.742188 136.628906 273.789062 C 136.695312 273.289062 136.738281 272.785156 136.738281 272.265625 C 136.738281 265.464844 131.058594 259.9375 124.078125 259.9375 C 120.082031 259.9375 116.398438 261.730469 113.972656 264.867188 C 113.511719 265.464844 112.726562 265.710938 112 265.503906 C 111.273438 265.285156 110.757812 264.648438 110.699219 263.894531 C 110.410156 260.164062 108.632812 256.789062 105.6875 254.375 C 102.652344 251.890625 98.785156 250.796875 94.800781 251.257812 C 88.773438 251.976562 83.792969 256.527344 82.691406 262.324219 C 82.347656 264.132812 82.359375 265.941406 82.726562 267.703125 C 82.890625 268.503906 82.503906 269.316406 81.78125 269.695312 C 81.058594 270.070312 80.167969 269.925781 79.605469 269.332031 C 78.039062 267.683594 75.910156 266.769531 73.617188 266.769531 C 69.339844 266.769531 65.765625 270.027344 65.488281 274.179688 C 65.449219 274.714844 65.1875 275.199219 64.761719 275.519531 C 64.335938 275.835938 63.792969 275.957031 63.273438 275.84375 C 60.933594 275.339844 58.722656 275.484375 56.515625 276.300781 C 51.894531 277.992188 48.664062 282.261719 48.476562 286.921875 C 48.351562 290.121094 49.515625 293.167969 51.753906 295.496094 C 54.082031 297.910156 57.234375 299.238281 60.628906 299.238281 L 92.875 299.238281 C 93.886719 299.238281 94.707031 300.058594 94.707031 301.066406 C 94.707031 302.078125 93.886719 302.894531 92.875 302.894531 L 60.628906 302.894531 C 56.289062 302.894531 52.09375 301.121094 49.117188 298.03125 C 46.175781 294.972656 44.652344 290.976562 44.820312 286.777344 C 45.066406 280.65625 49.257812 275.066406 55.253906 272.863281 C 57.484375 272.042969 59.792969 271.753906 62.136719 271.972656 C 63.394531 266.871094 68.101562 263.113281 73.617188 263.113281 C 75.421875 263.113281 77.191406 263.523438 78.792969 264.292969 C 78.824219 263.410156 78.929688 262.523438 79.097656 261.636719 C 80.492188 254.292969 86.769531 248.53125 94.367188 247.625 C 99.363281 247.011719 104.195312 248.421875 108.007812 251.539062 C 110.746094 253.78125 112.6875 256.691406 113.667969 259.953125 C 116.566406 257.585938 120.210938 256.273438 124.074219 256.273438 C 133.078125 256.273438 140.394531 263.445312 140.394531 272.257812 C 140.394531 272.382812 140.394531 272.507812 140.390625 272.636719 C 146.851562 274.664062 151.386719 280.632812 151.386719 287.394531 C 151.390625 295.945312 144.296875 302.898438 135.570312 302.898438 Z M 100.210938 302.898438 L 98.890625 302.898438 C 97.878906 302.898438 97.0625 302.078125 97.0625 301.070312 C 97.0625 300.0625 97.878906 299.242188 98.890625 299.242188 L 100.210938 299.242188 C 101.21875 299.242188 102.039062 300.0625 102.039062 301.070312 C 102.039062 302.078125 101.21875 302.898438 100.210938 302.898438 Z M 100.210938 302.898438 " fill-opacity="1" fill-rule="nonzero"/><path fill="#472b29" d="M 129.320312 281.683594 C 129.253906 281.683594 129.1875 281.675781 129.117188 281.660156 C 128.625 281.550781 128.3125 281.0625 128.425781 280.566406 C 128.5625 279.96875 128.769531 279.378906 129.046875 278.816406 C 131.261719 274.34375 137.367188 272.6875 142.675781 275.136719 C 143.132812 275.347656 143.335938 275.886719 143.125 276.34375 C 142.910156 276.804688 142.367188 277 141.90625 276.792969 C 137.511719 274.757812 132.472656 276.03125 130.691406 279.621094 C 130.480469 280.050781 130.320312 280.503906 130.214844 280.960938 C 130.117188 281.394531 129.742188 281.683594 129.320312 281.683594 Z M 129.320312 281.683594 " fill-opacity="1" fill-rule="nonzero"/><path fill="#472b29" d="M 110.429688 302.898438 L 106.375 302.898438 C 105.363281 302.898438 104.546875 302.078125 104.546875 301.070312 C 104.546875 300.0625 105.363281 299.242188 106.375 299.242188 L 110.429688 299.242188 C 111.441406 299.242188 112.261719 300.0625 112.261719 301.070312 C 112.261719 302.078125 111.445312 302.898438 110.429688 302.898438 Z M 110.429688 302.898438 " fill-opacity="1" fill-rule="nonzero"/></svg>